<svg width="20" height="20" viewBox="0 0 20 20" fill="none" xmlns="http://www.w3.org/2000/svg">
<g clip-path="url(#clip0_44_3)">
<path fill-rule="evenodd" clip-rule="evenodd" d="M20 10C20 15.5228 15.5228 20 10 20C4.47715 20 0 15.5228 0 10C0 4.47715 4.47715 0 10 0C15.5228 0 20 4.47715 20 10ZM6.50452 10.0063C7.33544 10.0063 8.009 9.3333 8.009 8.5031C8.009 7.67298 7.33544 7 6.50452 7C5.6736 7 5 7.67298 5 8.5031C5 9.3333 5.6736 10.0063 6.50452 10.0063ZM14 12.75H6V14.25H14V12.75ZM15.009 8.5031C15.009 9.3333 14.3354 10.0063 13.5045 10.0063C12.6736 10.0063 12 9.3333 12 8.5031C12 7.67298 12.6736 7 13.5045 7C14.3354 7 15.009 7.67298 15.009 8.5031Z" fill="#FFA100"/>
<path d="M8.009 8.5031C8.009 9.3333 7.33544 10.0063 6.50452 10.0063C5.6736 10.0063 5 9.3333 5 8.5031C5 7.67298 5.6736 7 6.50452 7C7.33544 7 8.009 7.67298 8.009 8.5031Z" fill="#0E1829"/>
<path d="M13.5045 10.0063C14.3354 10.0063 15.009 9.3333 15.009 8.5031C15.009 7.67298 14.3354 7 13.5045 7C12.6736 7 12 7.67298 12 8.5031C12 9.3333 12.6736 10.0063 13.5045 10.0063Z" fill="#0E1829"/>
<path d="M6 12.75H14V14.25H6V12.75Z" fill="#0E1829"/>
</g>
<defs>
<clipPath id="clip0_44_3">
<rect width="20" height="20" fill="white"/>
</clipPath>
</defs>
</svg>
