<svg width="35" height="35" viewBox="0 0 35 35" fill="none" xmlns="http://www.w3.org/2000/svg">
<rect width="35" height="35" rx="17.5" fill="#FFCAB8"/>
<path fill-rule="evenodd" clip-rule="evenodd" d="M23.3788 22.5L22.7683 14.6511C22.5861 12.3082 20.6318 10.5 18.2819 10.5H17.7181C15.3682 10.5 13.4139 12.3082 13.2317 14.651L12.6212 22.5H23.3788ZM11.7362 14.5347L11.1167 22.5H10V24H11H12.5045H14.126C14.5701 25.7252 16.1362 27 18 27C19.8638 27 21.4299 25.7252 21.874 24H23.4955H25H26V22.5H24.8833L24.2638 14.5347C24.0208 11.4109 21.4151 9 18.2819 9H17.7181C14.5849 9 11.9791 11.4109 11.7362 14.5347ZM15.708 24H20.292C19.9062 24.883 19.0252 25.5 18 25.5C16.9748 25.5 16.0938 24.883 15.708 24Z" fill="#FF4F12"/>
</svg>
