<svg width="40" height="40" viewBox="0 0 40 40" fill="none" xmlns="http://www.w3.org/2000/svg">
<rect width="40" height="40" rx="20" fill="#D6B2FF"/>
<path d="M15.8514 20.786L15.2103 21.2338C14.1727 21.9584 13.5 23.1552 13.5 24.5078C13.5 26.7107 15.2889 28.5001 17.5 28.5001C19.7111 28.5001 21.5 26.7107 21.5 24.5078C21.5 23.1552 20.8273 21.9584 19.7897 21.2338L19.1486 20.786V20.004V13.1486C19.1486 12.2381 18.4105 11.5 17.5 11.5C16.5895 11.5 15.8514 12.2381 15.8514 13.1486V20.004V20.786ZM14.3514 13.1486C14.3514 11.4097 15.7611 10 17.5 10C19.2389 10 20.6486 11.4097 20.6486 13.1486V20.004C22.0702 20.9969 23 22.6439 23 24.5078C23 27.5411 20.5376 30.0001 17.5 30.0001C14.4624 30.0001 12 27.5411 12 24.5078C12 22.6439 12.9298 20.9969 14.3514 20.004V13.1486ZM24.75 15.25V17H26.25V15.25H28V13.75H26.25V12H24.75V13.75H23V15.25H24.75ZM23 20.4854H28V18.9854H23V20.4854Z" fill="#7700FF"/>
</svg>
