<svg width="35" height="35" viewBox="0 0 35 35" fill="none" xmlns="http://www.w3.org/2000/svg">
<rect width="35" height="35" rx="17.5" fill="#FFCAB8"/>
<g clip-path="url(#clip0_64_1002)">
<path fill-rule="evenodd" clip-rule="evenodd" d="M19.735 9H16.2631L15.8057 10.596C15.4716 11.7614 14.2743 12.4526 13.098 12.159L11.4762 11.7543L9.74452 14.744L10.8985 15.9329C11.7458 16.8058 11.7458 18.1942 10.8985 19.0671L9.74453 20.256L11.4762 23.2457L13.098 22.841C14.2743 22.5474 15.4716 23.2387 15.8057 24.4041L16.2631 26H19.735L20.1924 24.404C20.5265 23.2386 21.7238 22.5474 22.9001 22.8409L24.5219 23.2457L26.2536 20.256L25.0997 19.0671C24.2523 18.1942 24.2523 16.8058 25.0997 15.9329L26.2536 14.7441L24.5219 11.7544L22.9001 12.1591C21.7238 12.4526 20.5265 11.7614 20.1924 10.596L19.735 9ZM21.6344 10.1827C21.7457 10.5711 22.1448 10.8015 22.5369 10.7037L24.889 10.1168C25.1052 10.0628 25.331 10.1585 25.4427 10.3513L27.9308 14.647C28.043 14.8407 28.0128 15.0853 27.8569 15.2458L26.176 16.9776C25.8935 17.2686 25.8935 17.7314 26.176 18.0224L27.857 19.7542C28.0128 19.9147 28.043 20.1594 27.9308 20.353L25.4427 24.6487C25.331 24.8415 25.1052 24.9372 24.889 24.8832L22.5369 24.2963C22.1448 24.1985 21.7457 24.4289 21.6344 24.8173L20.9692 27.1378C20.9078 27.3522 20.7117 27.5 20.4886 27.5H15.5095C15.2864 27.5 15.0903 27.3522 15.0289 27.1378L14.3638 24.8174C14.2524 24.4289 13.8533 24.1985 13.4612 24.2963L11.1091 24.8833C10.8929 24.9372 10.6671 24.8416 10.5554 24.6487L8.06729 20.353C7.95512 20.1594 7.9853 19.9148 8.14118 19.7542L9.82215 18.0224C10.1046 17.7314 10.1046 17.2686 9.82215 16.9776L8.14117 15.2458C7.9853 15.0852 7.95512 14.8406 8.06729 14.647L10.5554 10.3513C10.6671 10.1585 10.8929 10.0628 11.1091 10.1168L13.4612 10.7037C13.8533 10.8015 14.2524 10.5711 14.3638 10.1827L15.0289 7.86223C15.0903 7.64778 15.2864 7.5 15.5095 7.5H20.4886C20.7117 7.5 20.9078 7.64778 20.9692 7.86223L21.6344 10.1827ZM20.4999 17.5C20.4999 16.1193 19.3806 15 17.9999 15C16.6192 15 15.4999 16.1193 15.4999 17.5C15.4999 18.8807 16.6192 20 17.9999 20C19.3806 20 20.4999 18.8807 20.4999 17.5ZM21.9999 17.5C21.9999 15.2909 20.209 13.5 17.9999 13.5C15.7908 13.5 13.9999 15.2909 13.9999 17.5C13.9999 19.7091 15.7908 21.5 17.9999 21.5C20.209 21.5 21.9999 19.7091 21.9999 17.5Z" fill="#FF4F12"/>
</g>
<defs>
<clipPath id="clip0_64_1002">
<rect width="20" height="20" fill="white" transform="translate(8 7.5)"/>
</clipPath>
</defs>
</svg>
