<svg width="35" height="35" viewBox="0 0 35 35" fill="none" xmlns="http://www.w3.org/2000/svg">
<rect width="35" height="35" rx="17.5" fill="#FFCAB8"/>
<path fill-rule="evenodd" clip-rule="evenodd" d="M28.2835 16.967L25.7181 17.9316V24.1668C25.7181 26.0077 24.2407 27.5 22.418 27.5H13.5922C11.7696 27.5 10.2921 26.0077 10.2921 24.1668V17.9316L7.71743 16.9662C6.89565 16.6581 6.74338 15.5503 7.45098 15.0277L17.3535 7.71419C17.7403 7.42852 18.2656 7.42861 18.6523 7.71441L28.5493 15.029C29.2563 15.5514 29.1045 16.6583 28.2835 16.967ZM19.1003 19.1663C19.4041 19.1663 19.6503 19.4151 19.6503 19.7219V25.8328H16.3503V19.7219C16.3503 19.4151 16.5966 19.1663 16.9003 19.1663H19.1003ZM24.0681 16.7737L25.1425 16.3698L26.7508 15.765L18.0026 9.29937L9.25048 15.7633L10.8664 16.3692L11.9421 16.7726V17.9316V24.1668C11.9421 25.0873 12.6809 25.8334 13.5922 25.8334L14.7002 25.8328V19.7219C14.7002 18.4946 15.6852 17.4997 16.9003 17.4997H19.1003C20.3154 17.4997 21.3004 18.4946 21.3004 19.7219V25.8334H22.418C23.3294 25.8334 24.0681 25.0873 24.0681 24.1668V17.9316V16.7737Z" fill="#FF4F12"/>
</svg>
