<svg width="40" height="40" viewBox="0 0 40 40" fill="none" xmlns="http://www.w3.org/2000/svg">
<rect width="40" height="40" rx="20" fill="#D6B2FF"/>
<g clip-path="url(#clip0_113_266)">
<path fill-rule="evenodd" clip-rule="evenodd" d="M20.5 31.125C26.368 31.125 31.125 26.368 31.125 20.5C31.125 14.632 26.368 9.875 20.5 9.875C14.632 9.875 9.875 14.632 9.875 20.5C9.875 26.368 14.632 31.125 20.5 31.125ZM20.5 33C27.4035 33 33 27.4035 33 20.5C33 13.5964 27.4035 8 20.5 8C13.5964 8 8 13.5964 8 20.5C8 27.4035 13.5964 33 20.5 33ZM20.5844 22.526C19.9305 21.8802 19.5625 20.9995 19.5625 20.0805V14.2882H21.4375V20.0805C21.4375 20.4981 21.6047 20.8985 21.902 21.1921L24.2839 23.5447L22.9661 24.8787L20.5844 22.526Z" fill="#7700FF"/>
</g>
<defs>
<clipPath id="clip0_113_266">
<rect width="25" height="25" fill="white" transform="translate(8 8)"/>
</clipPath>
</defs>
</svg>
