<svg width="30" height="30" viewBox="0 0 30 30" fill="none" xmlns="http://www.w3.org/2000/svg">
<rect width="30" height="30" rx="15" fill="#7700FF"/>
<g clip-path="url(#clip0_88_1094)">
<path d="M14.2554 8.53471C10.4628 8.90851 7.5 12.1074 7.5 15.9982C7.5 20.1404 10.8579 23.4982 15 23.4982C19.1421 23.4982 22.5 20.1404 22.5 15.9982C22.5 12.1334 19.5768 8.95141 15.8208 8.5426C15.9394 9.01686 16 9.50563 16 9.99821H14.5C14.5 9.49853 14.4168 9.00408 14.2554 8.53471ZM15.1974 7.00033C20.0768 7.10532 24 11.0936 24 15.9982C24 20.9688 19.9706 24.9982 15 24.9982C10.0294 24.9982 6 20.9688 6 15.9982C6 11.5505 9.22625 7.85641 13.4661 7.12839C13.1864 6.79047 12.8576 6.49403 12.4895 6.24955L13.3193 5C14.0921 5.51323 14.7347 6.19818 15.1974 7.00033ZM11.1029 18.2482C11.4978 18.9323 12.0659 19.5004 12.75 19.8954C13.4341 20.2903 14.2101 20.4982 15 20.4982C15.7899 20.4982 16.5659 20.2903 17.25 19.8954C17.9341 19.5004 18.5022 18.9323 18.8971 18.2482L20.1962 18.9982C19.6695 19.9104 18.9121 20.6678 18 21.1944C17.0879 21.721 16.0532 21.9982 15 21.9982C13.9468 21.9982 12.9121 21.721 12 21.1944C11.0879 20.6678 10.3305 19.9104 9.80385 18.9982L11.1029 18.2482ZM13.009 15.5013C13.009 16.3315 12.3354 17.0045 11.5045 17.0045C10.6736 17.0045 10 16.3315 10 15.5013C10 14.6712 10.6736 13.9982 11.5045 13.9982C12.3354 13.9982 13.009 14.6712 13.009 15.5013ZM18.5045 17.0045C19.3354 17.0045 20.009 16.3315 20.009 15.5013C20.009 14.6712 19.3354 13.9982 18.5045 13.9982C17.6736 13.9982 17 14.6712 17 15.5013C17 16.3315 17.6736 17.0045 18.5045 17.0045Z" fill="white"/>
</g>
<defs>
<clipPath id="clip0_88_1094">
<rect width="18" height="20" fill="white" transform="translate(6 5)"/>
</clipPath>
</defs>
</svg>
