<svg width="35" height="35" viewBox="0 0 35 35" fill="none" xmlns="http://www.w3.org/2000/svg">
<rect width="35" height="35" rx="17.5" fill="#FFCAB8"/>
<g clip-path="url(#clip0_88_1071)">
<path fill-rule="evenodd" clip-rule="evenodd" d="M19.3633 14.7067L19.7119 15.4817L20.5559 15.581L24.9235 16.0953L21.6112 18.849L20.8911 19.4477L21.1128 20.3575L22.1252 24.5133L18.3035 22.368L17.5693 21.9559L16.835 22.368L13.0143 24.5128L14.0275 20.3578L14.2493 19.4478L13.5291 18.849L10.2167 16.0952L14.5829 15.581L15.4268 15.4816L15.7753 14.7067L17.5693 10.7188L19.3633 14.7067ZM8.88421 14.7418L14.4074 14.0913L16.6573 9.08975C17.011 8.30342 18.1275 8.30341 18.4813 9.08974L20.7313 14.0913L26.256 14.7418C27.1287 14.8446 27.454 15.9422 26.7783 16.5039L22.5701 20.0024L23.8548 25.2755C24.0617 26.1248 23.156 26.8121 22.3937 26.3842L17.5693 23.676L12.7456 26.3839C11.9832 26.8118 11.0774 26.1244 11.2845 25.275L12.5701 20.0024L8.36188 16.5038C7.68619 15.9421 8.01154 14.8445 8.88421 14.7418Z" fill="#FF4F12"/>
</g>
<defs>
<clipPath id="clip0_88_1071">
<rect width="19.14" height="18.02" fill="white" transform="translate(8 8.5)"/>
</clipPath>
</defs>
</svg>
