<svg width="35" height="35" viewBox="0 0 35 35" fill="none" xmlns="http://www.w3.org/2000/svg">
<rect width="35" height="35" rx="17.5" fill="#FFCAB8"/>
<g clip-path="url(#clip0_64_982)">
<path fill-rule="evenodd" clip-rule="evenodd" d="M22.8571 13.7778V15.8889H23.9286C24.5203 15.8889 25 16.3615 25 16.9444V22.2222C25 25.137 22.6015 27.5 19.6429 27.5H15.3571C12.3985 27.5 10 25.137 10 22.2222V16.9444C10 16.3615 10.4797 15.8889 11.0714 15.8889H12.1429V13.7778C12.1429 10.8629 14.5413 8.5 17.5 8.5C20.4586 8.5 22.8571 10.8629 22.8571 13.7778ZM13.75 15.8889H21.25V13.7778C21.25 11.7374 19.5711 10.0833 17.5 10.0833C15.4289 10.0833 13.75 11.7374 13.75 13.7778V15.8889ZM15.3571 25.9167C13.2861 25.9167 11.6071 24.2626 11.6071 22.2222V17.4722H23.3929V22.2222C23.3929 24.2626 21.7139 25.9167 19.6429 25.9167H15.3571ZM18.3036 22.0207C18.7894 21.7474 19.1168 21.2324 19.1168 20.6422C19.1168 19.7659 18.3951 19.0556 17.5048 19.0556C16.6146 19.0556 15.8929 19.7659 15.8929 20.6422C15.8929 21.2285 16.2159 21.7406 16.6964 22.0152V23.2778C16.6964 23.5692 16.9363 23.8056 17.2321 23.8056H17.7679C18.0637 23.8056 18.3036 23.5692 18.3036 23.2778V22.0207Z" fill="#FF4F12"/>
</g>
<defs>
<clipPath id="clip0_64_982">
<rect width="15" height="19" fill="white" transform="translate(10 8.5)"/>
</clipPath>
</defs>
</svg>
