<svg width="22" height="29" viewBox="0 0 22 29" fill="none" xmlns="http://www.w3.org/2000/svg">
<path d="M5.27814 19.3605C5.27814 18.2559 6.17357 17.3605 7.27814 17.3605H13.2781C14.3827 17.3605 15.2781 18.2559 15.2781 19.3605V23.3605C15.2781 24.465 14.3827 25.3605 13.2781 25.3605H7.27814C6.17357 25.3605 5.27814 24.465 5.27814 23.3605V19.3605Z" fill="white"/>
<path d="M5.27814 5.36047C5.27814 4.2559 6.17357 3.36047 7.27814 3.36047H13.2781C14.3827 3.36047 15.2781 4.2559 15.2781 5.36047V9.36047C15.2781 10.465 14.3827 11.3605 13.2781 11.3605H7.27814C6.17357 11.3605 5.27814 10.465 5.27814 9.36047V5.36047Z" fill="white"/>
<path d="M0 27V1C0 0.447715 0.447715 0 1 0C1.55228 0 2 0.447715 2 1V27C2 27.5523 1.55228 28 1 28C0.447715 28 0 27.5523 0 27Z" fill="white"/>
<path d="M19.0635 27.1459V1.14587C19.0635 0.593589 19.5113 0.145874 20.0635 0.145874C20.6158 0.145874 21.0635 0.593589 21.0635 1.14587V27.1459C21.0635 27.6982 20.6158 28.1459 20.0635 28.1459C19.5113 28.1459 19.0635 27.6982 19.0635 27.1459Z" fill="white"/>
</svg>
