<svg width="35" height="35" viewBox="0 0 35 35" fill="none" xmlns="http://www.w3.org/2000/svg">
<rect width="35" height="35" rx="17.5" fill="#FFCAB8"/>
<g clip-path="url(#clip0_88_1057)">
<path fill-rule="evenodd" clip-rule="evenodd" d="M11.5 25.5C11.5 25.7761 11.7239 26 12 26H24C24.2761 26 24.5 25.7761 24.5 25.5V13.9005C24.5 13.7655 24.4454 13.6362 24.3485 13.542L19.8223 9.1415C19.7289 9.05076 19.6039 9 19.4737 9H12C11.7239 9 11.5 9.22386 11.5 9.5V25.5ZM12 7.5C10.8954 7.5 10 8.39543 10 9.5V25.5C10 26.6046 10.8954 27.5 12 27.5H24C25.1046 27.5 26 26.6046 26 25.5V13.9005C26 13.3603 25.7815 12.8431 25.3942 12.4665L20.8679 8.06601C20.4946 7.70306 19.9944 7.5 19.4737 7.5H12ZM22 16H14V14.5H22V16ZM14 19.25H22V17.75H14V19.25ZM14 22.5H22V21H14V22.5Z" fill="#FF4F12"/>
</g>
<defs>
<clipPath id="clip0_88_1057">
<rect width="16" height="20" fill="white" transform="translate(10 7.5)"/>
</clipPath>
</defs>
</svg>
