<svg width="40" height="40" viewBox="0 0 40 40" fill="none" xmlns="http://www.w3.org/2000/svg">
<rect width="40" height="40" rx="20" fill="#D6B2FF"/>
<g clip-path="url(#clip0_113_276)">
<path fill-rule="evenodd" clip-rule="evenodd" d="M20.9296 29.3134L18.8923 21.1187L10.6856 19.0586C10.499 19.0112 10.3322 18.9059 10.2093 18.7576C10.0864 18.6094 10.0136 18.4259 10.0014 18.2335C9.98931 18.0411 10.0384 17.85 10.1418 17.6874C10.2451 17.5247 10.3973 17.3992 10.5765 17.3287L28.752 10.0652C28.9174 9.99897 29.0984 9.98276 29.2729 10.0186C29.4473 10.0544 29.6074 10.1406 29.7333 10.2667C29.8591 10.3927 29.9453 10.5529 29.9811 10.7275C30.0169 10.9021 30.0006 11.0834 29.9345 11.2489L22.6579 29.4226C22.5874 29.6019 22.462 29.7542 22.2995 29.8577C22.1371 29.9611 21.9461 30.0104 21.754 29.9982C21.5619 29.986 21.3785 29.9132 21.2304 29.7901C21.0823 29.667 20.977 29.5001 20.9296 29.3134ZM19.3488 19.3001L14.0342 17.9661L27.357 12.6419L22.0266 25.9546L20.7118 20.6664L20.4403 19.5741L19.3488 19.3001Z" fill="#7700FF"/>
</g>
<defs>
<clipPath id="clip0_113_276">
<rect width="20" height="20" fill="white" transform="translate(10 10)"/>
</clipPath>
</defs>
</svg>
