<svg width="35" height="35" viewBox="0 0 35 35" fill="none" xmlns="http://www.w3.org/2000/svg">
<rect width="35" height="35" rx="17.5" fill="#FFCAB8"/>
<path fill-rule="evenodd" clip-rule="evenodd" d="M23.404 11.5202C22.9486 9.22788 20.9261 7.5 18.5 7.5H16.5C14.0739 7.5 12.0514 9.22788 11.596 11.5202C11.5639 11.5234 11.5319 11.527 11.5 11.531C9.52684 11.777 8 13.4602 8 15.5V17.5C8 19.5398 9.52684 21.223 11.5 21.4691C11.6638 21.4895 11.8307 21.5 12 21.5H13V20V13V12.5C13 10.567 14.567 9 16.5 9H18.5C20.433 9 22 10.567 22 12.5V13V20V20.7324C21.9901 22.2042 21.0717 23.4602 19.7777 23.9678C19.3847 23.1021 18.5127 22.5 17.5 22.5C16.1193 22.5 15 23.6193 15 25C15 26.3807 16.1193 27.5 17.5 27.5C18.7114 27.5 19.7216 26.6384 19.9511 25.4945C21.7674 24.9446 23.1468 23.3892 23.4415 21.4759C23.4611 21.4738 23.4806 21.4715 23.5 21.4691C25.4732 21.223 27 19.5398 27 17.5V15.5C27 13.4602 25.4732 11.777 23.5 11.531C23.4681 11.527 23.4361 11.5234 23.404 11.5202ZM9.5 17.5C9.5 18.7095 10.3589 19.7184 11.5 19.95V13.05C10.3589 13.2816 9.5 14.2905 9.5 15.5V17.5ZM18.5 25C18.5 25.5523 18.0523 26 17.5 26C16.9477 26 16.5 25.5523 16.5 25C16.5 24.4477 16.9477 24 17.5 24C18.0523 24 18.5 24.4477 18.5 25ZM23.5 13.05C24.6411 13.2816 25.5 14.2905 25.5 15.5V17.5C25.5 18.7095 24.6411 19.7184 23.5 19.95V13.05Z" fill="#FF4F12"/>
</svg>
