<svg width="20" height="16" viewBox="0 0 20 16" fill="none" xmlns="http://www.w3.org/2000/svg">
<g clip-path="url(#clip0_29_789)">
<path fill-rule="evenodd" clip-rule="evenodd" d="M1 0C0.44771 0 0 0.44771 0 1V6C0 7.3226 0.8559 8.4453 2.04404 8.8445C2.46593 12.8658 5.86695 16 10 16C14.1331 16 17.5341 12.8658 17.956 8.8445C19.1441 8.4453 20 7.3226 20 6V1C20 0.44771 19.5523 0 19 0H1ZM3.57645 9C4.05745 12.1151 6.75021 14.5 10 14.5C13.2498 14.5 15.9425 12.1151 16.4236 9H3.57645ZM11.5 11.5C11.5 12.3284 10.8284 13 10 13C9.1716 13 8.5 12.3284 8.5 11.5C8.5 10.6716 9.1716 10 10 10C10.8284 10 11.5 10.6716 11.5 11.5ZM1.5 6V1.5H18.5V6C18.5 6.8284 17.8284 7.5 17 7.5H3C2.17157 7.5 1.5 6.8284 1.5 6Z" fill="white"/>
</g>
<defs>
<clipPath id="clip0_29_789">
<rect width="20" height="16" fill="white"/>
</clipPath>
</defs>
</svg>
