<svg width="17" height="12" viewBox="0 0 17 12" fill="none" xmlns="http://www.w3.org/2000/svg">
<g clip-path="url(#clip0_57_930)">
<path d="M13.4487 10.9393C16.1818 8.21106 16.1818 3.78792 13.4487 1.05979L14.5104 0C17.8298 3.31344 17.8299 8.68556 14.5104 11.9991L13.4487 10.9393ZM3.55126 1.06002C0.818197 3.78815 0.818197 8.21136 3.55126 10.9395L2.48956 11.9993C-0.829853 8.68586 -0.829853 3.31367 2.48956 0.000240326L3.55126 1.06002ZM6.49969 5.99946C6.49969 4.90036 7.3928 4.00516 8.4998 4.00516C9.6068 4.00516 10.5 4.90036 10.5 5.99946C10.5 7.09856 9.6068 7.99386 8.4998 7.99386C7.3928 7.99386 6.49969 7.09856 6.49969 5.99946ZM4.99969 5.99946C4.99969 4.06956 6.5668 2.50513 8.4998 2.50513C10.4329 2.50513 12 4.06956 12 5.99946C12 7.92936 10.4329 9.49386 8.4998 9.49386C6.5668 9.49386 4.99969 7.92936 4.99969 5.99946Z" fill="white"/>
</g>
<defs>
<clipPath id="clip0_57_930">
<rect width="17" height="12" fill="white"/>
</clipPath>
</defs>
</svg>
