<svg width="20" height="20" viewBox="0 0 20 20" fill="none" xmlns="http://www.w3.org/2000/svg">
<g clip-path="url(#clip0_44_72)">
<path fill-rule="evenodd" clip-rule="evenodd" d="M15.7143 5.55556V7.77778H16.8571C17.4883 7.77778 18 8.27522 18 8.88889V14.4444C18 17.5127 15.4416 20 12.2857 20H7.71429C4.55838 20 2 17.5127 2 14.4444V8.88889C2 8.27522 2.51168 7.77778 3.14286 7.77778H4.28571V5.55556C4.28571 2.48731 6.84409 0 10 0C13.1559 0 15.7143 2.48731 15.7143 5.55556ZM6 7.77778H14V5.55556C14 3.40778 12.2091 1.66667 10 1.66667C7.79086 1.66667 6 3.40778 6 5.55556V7.77778ZM7.71429 18.3333C5.50514 18.3333 3.71429 16.5922 3.71429 14.4444V9.44444H16.2857V14.4444C16.2857 16.5922 14.4949 18.3333 12.2857 18.3333H7.71429ZM10.8571 14.2323C11.3753 13.9447 11.7246 13.4026 11.7246 12.7812C11.7246 11.8589 10.9547 11.1111 10.0051 11.1111C9.05554 11.1111 8.28571 11.8589 8.28571 12.7812C8.28571 13.3984 8.63029 13.9374 9.14286 14.2266V15.5556C9.14286 15.8623 9.39874 16.1111 9.71429 16.1111H10.2857C10.6013 16.1111 10.8571 15.8623 10.8571 15.5556V14.2323Z" fill="white"/>
</g>
<defs>
<clipPath id="clip0_44_72">
<rect width="16" height="20" fill="white" transform="translate(2)"/>
</clipPath>
</defs>
</svg>
