<svg width="25" height="20" viewBox="0 0 25 20" fill="none" xmlns="http://www.w3.org/2000/svg">
<path d="M0 10C0 9.24196 0.489689 8.62745 1.09375 8.62745H23.9062C24.5103 8.62745 25 9.24196 25 10C25 10.758 24.5103 11.3725 23.9062 11.3725H1.09375C0.489688 11.3725 0 10.758 0 10Z" fill="#7700FF"/>
<path d="M0 18.6275C0 17.8694 0.489689 17.2549 1.09375 17.2549H23.9062C24.5103 17.2549 25 17.8694 25 18.6275C25 19.3855 24.5103 20 23.9062 20H1.09375C0.489688 20 0 19.3855 0 18.6275Z" fill="#7700FF"/>
<path d="M0 1.37255C0 0.614511 0.489689 0 1.09375 0H23.9062C24.5103 0 25 0.614511 25 1.37255C25 2.13059 24.5103 2.7451 23.9062 2.7451H1.09375C0.489688 2.7451 0 2.13059 0 1.37255Z" fill="#7700FF"/>
</svg>
