<svg width="24" height="20" viewBox="0 0 24 20" fill="none" xmlns="http://www.w3.org/2000/svg">
<path d="M0 1.0687C0 0.478474 0.469592 0 1.04886 0H22.9252C23.5044 0 23.974 0.478474 23.974 1.0687C23.974 1.65893 23.5044 2.1374 22.9252 2.1374H1.04886C0.469592 2.1374 0 1.65893 0 1.0687Z" fill="#ABAEB4"/>
<path d="M0 7.0229C0 6.43267 0.469592 5.9542 1.04886 5.9542H22.9252C23.5044 5.9542 23.974 6.43267 23.974 7.0229C23.974 7.61313 23.5044 8.0916 22.9252 8.0916H1.04886C0.469592 8.0916 0 7.61313 0 7.0229Z" fill="#ABAEB4"/>
<path d="M0 12.9771C0 12.3869 0.469592 11.9084 1.04886 11.9084H10.9381C11.5174 11.9084 11.987 12.3869 11.987 12.9771C11.987 13.5673 11.5174 14.0458 10.9381 14.0458H1.04886C0.469592 14.0458 0 13.5673 0 12.9771Z" fill="#ABAEB4"/>
<path d="M0 18.9313C0 18.3411 0.469592 17.8626 1.04886 17.8626H10.9381C11.5174 17.8626 11.987 18.3411 11.987 18.9313C11.987 19.5215 11.5174 20 10.9381 20H1.04886C0.469592 20 0 19.5215 0 18.9313Z" fill="#ABAEB4"/>
<path d="M23.415 16.0351C24.195 15.6432 24.195 14.51 23.415 14.1181L15.8972 10.3406C15.2001 9.99033 14.3844 10.5072 14.3844 11.2991V18.8542C14.3844 19.6461 15.2001 20.1629 15.8972 19.8127L23.415 16.0351Z" fill="#ABAEB4"/>
</svg>
