<svg width="20" height="17" viewBox="0 0 20 17" fill="none" xmlns="http://www.w3.org/2000/svg">
<g clip-path="url(#clip0_187_74)">
<path d="M11.2201 11.3111L16.3447 16.4357L17.4053 15.375L2.03033 0L0.96967 1.06066L3.15867 3.24966C2.53653 3.62037 1.95094 4.04338 1.41096 4.51543C0.8866 4.97383 0.41513 5.46982 0 5.99615L1.07458 7.05806C1.45574 6.55614 1.89776 6.08223 2.39821 5.64474C2.96239 5.15153 3.58678 4.71747 4.25775 4.34875L6.1771 6.2681C4.99755 6.8118 3.91689 7.606 3.00222 8.6161C2.94691 8.6771 2.89235 8.7389 2.83852 8.8012L3.90828 9.8583C3.97553 9.7787 4.04413 9.7002 4.11406 9.623C5.03036 8.6111 6.1309 7.8628 7.32281 7.4138L9.5293 9.6203C8.0189 9.7697 6.72206 10.6297 5.89751 11.8241L6.9858 12.8996C7.61928 11.839 8.7451 11.0971 9.9996 11.0971C10.4278 11.0971 10.839 11.1718 11.2201 11.3111ZM15.8854 9.623C14.5575 8.1566 12.8427 7.2436 11.0236 6.99332L9.4691 5.43878C9.6453 5.42839 9.8222 5.42315 9.9997 5.42315C12.6401 5.42315 15.1552 6.58203 16.9973 8.6161C17.0528 8.6774 17.1076 8.7394 17.1616 8.8019L16.0918 9.859C16.0243 9.7791 15.9555 9.7004 15.8854 9.623ZM9.9998 2.90538C9.059 2.90538 8.1344 3.01215 7.24658 3.21631L6.02138 1.9911C7.28909 1.60689 8.6325 1.40538 9.9998 1.40538C13.2212 1.40538 16.3107 2.52412 18.5886 4.51543C19.1133 4.97412 19.585 5.47045 20.0003 5.99716L18.9256 7.05899C18.5443 6.55673 18.1021 6.0825 17.6013 5.64474C15.6154 3.90866 12.8836 2.90538 9.9998 2.90538ZM9.9999 16.4111C10.8283 16.4111 11.4999 15.7395 11.4999 14.9111C11.4999 14.0827 10.8283 13.4111 9.9999 13.4111C9.1715 13.4111 8.4999 14.0827 8.4999 14.9111C8.4999 15.7395 9.1715 16.4111 9.9999 16.4111Z" fill="#FF2626"/>
</g>
<defs>
<clipPath id="clip0_187_74">
<rect width="20" height="16.44" fill="white"/>
</clipPath>
</defs>
</svg>
