<svg width="23" height="19" viewBox="0 0 23 19" fill="none" xmlns="http://www.w3.org/2000/svg">
<g clip-path="url(#clip0_180_91)">
<path fill-rule="evenodd" clip-rule="evenodd" d="M3.06525 1.60213C4.22604 -0.102683 6.54377 -0.513092 8.20824 0.691437L22.785 11.2402C23.0744 11.4497 23.0767 11.8843 22.7894 12.0968L20.588 13.7257C18.9685 14.924 16.8349 15.0678 15.0907 14.1502L13.744 15.2297C12.7392 16.0352 11.3285 16.0704 10.2857 15.3161L8.08429 13.7238L4.93249 16.2751C4.42263 16.6878 3.78902 16.9127 3.13597 16.9127H1.55876C1.49862 17.9008 1.06566 18.8318 0.2599 18.9965C0.118419 19.0255 0 18.9039 0 18.7579V12.933C0 12.7871 0.118419 12.6655 0.2599 12.6945C1.13067 12.8725 1.56605 13.9454 1.56605 15.0183V15.3267H3.13597C3.43281 15.3267 3.72081 15.2244 3.95256 15.0369L6.75897 12.7652L3.31189 10.2718C2.03733 9.34997 1.72748 7.56564 2.61518 6.25967L3.07086 5.5893L2.92511 5.48476C1.99242 4.81574 1.76412 3.51306 2.41265 2.5606L3.06525 1.60213ZM3.70422 3.46009L4.35683 2.50162C5.02014 1.52745 6.34455 1.29292 7.29567 1.98123L20.6974 11.6797L19.6621 12.4458C18.3915 13.386 16.6687 13.3988 15.3846 12.4776L3.83233 4.19113C3.59917 4.02387 3.54208 3.69821 3.70422 3.46009ZM13.7181 13.2267L4.35012 6.50693L3.90746 7.15813C3.50396 7.75173 3.6448 8.5628 4.22414 8.98181L11.198 14.0261C11.672 14.369 12.3132 14.3529 12.7699 13.9868L13.7181 13.2267Z" fill="white"/>
</g>
<defs>
<clipPath id="clip0_180_91">
<rect width="23" height="19" fill="white"/>
</clipPath>
</defs>
</svg>
