<svg width="20" height="28" viewBox="0 0 20 28" fill="none" xmlns="http://www.w3.org/2000/svg">
<g clip-path="url(#clip0_180_185)">
<path fill-rule="evenodd" clip-rule="evenodd" d="M15.9414 14.457L15.9391 14.4614L15.9177 14.5036L15.898 14.5471L13.6064 19.6H6.3894L4.08764 14.5443L4.06943 14.5043L4.04954 14.4651L4.04746 14.461L4.03384 14.4337C4.02107 14.408 4.00116 14.3675 3.9751 14.3137C3.92294 14.2059 3.84647 14.0452 3.75379 13.8424C3.56774 13.4348 3.31989 12.8647 3.07319 12.2163C3.03163 12.1071 2.99077 11.9973 2.95079 11.8874H17.0425C17.0027 11.9962 16.9621 12.1047 16.9207 12.2128C16.6727 12.8611 16.4237 13.431 16.2365 13.8384C16.1434 14.0414 16.0665 14.202 16.0141 14.3097C15.988 14.3636 15.968 14.4039 15.9551 14.4297L15.9414 14.457ZM17.6752 9.78736H2.32186C2.20894 9.27497 2.14286 8.80107 2.14286 8.4C2.14286 6.47367 2.82904 4.96966 4.01734 3.9271C5.2271 2.86569 7.16981 2.1 9.99296 2.1C12.8162 2.1 14.763 2.86577 15.9762 3.92836C17.1678 4.97188 17.8555 6.47592 17.8555 8.4C17.8555 8.80078 17.789 9.2747 17.6752 9.78736ZM7.12756 21.7C7.16967 21.91 7.20281 22.1218 7.2271 22.3349L7.4901 24.6546C7.57039 25.3637 8.18196 25.9 8.90981 25.9H11.0881C11.8161 25.9 12.4275 25.3637 12.508 24.6546L12.7714 22.3308C12.7955 22.119 12.8284 21.9086 12.8701 21.7H7.12756ZM15.3587 20.9068L17.8561 15.4C17.8561 15.4 19.9984 11.2 19.9984 8.4C19.9984 3.5 16.4157 0 9.99296 0C3.57039 0 0 3.5 0 8.4C0 11.2 2.13074 15.4 2.13074 15.4L4.63639 20.9035C4.87669 21.4313 5.03217 21.9925 5.0973 22.5669L5.3603 24.8865C5.56127 26.6591 7.09007 28 8.90981 28H11.0881C12.908 28 14.4368 26.6591 14.6377 24.8865L14.9012 22.5627C14.966 21.9909 15.1204 21.4325 15.3587 20.9068Z" fill="white"/>
</g>
<defs>
<clipPath id="clip0_180_185">
<rect width="20" height="28" fill="white"/>
</clipPath>
</defs>
</svg>
