<svg width="22" height="20" viewBox="0 0 22 20" fill="none" xmlns="http://www.w3.org/2000/svg">
<g clip-path="url(#clip0_214_196)">
<path fill-rule="evenodd" clip-rule="evenodd" d="M21.2829 9.46722L18.7176 10.4319V16.6672C18.7176 18.5082 17.2402 20.0006 15.4176 20.0006H6.592C4.76947 20.0006 3.292 18.5082 3.292 16.6672V10.4319L0.717406 9.46644C-0.104349 9.15833 -0.256611 8.05055 0.450964 7.52793L10.3532 0.214197C10.74 -0.0714805 11.2653 -0.0713916 11.652 0.214419L21.5487 7.52923C22.2556 8.05166 22.1038 9.15855 21.2829 9.46722ZM12.1 11.6667C12.4037 11.6667 12.65 11.9154 12.65 12.2222V18.3333H9.35V12.2222C9.35 11.9154 9.59629 11.6667 9.9 11.6667H12.1ZM17.0676 9.274L18.142 8.87L19.7503 8.26522L11.0023 1.79942L2.25042 8.26355L3.86626 8.86944L4.942 9.27289V10.4319V16.6672C4.942 17.5878 5.68074 18.3339 6.592 18.3339L7.7 18.3333V12.2222C7.7 10.9949 8.68497 10 9.9 10H12.1C13.3151 10 14.3 10.9949 14.3 12.2222V18.3339H15.4176C16.3289 18.3339 17.0676 17.5878 17.0676 16.6672V10.4319V9.274Z" fill="#ABAEB4"/>
</g>
<defs>
<clipPath id="clip0_214_196">
<rect width="22" height="20" fill="white"/>
</clipPath>
</defs>
</svg>
