<svg width="20" height="20" viewBox="0 0 20 20" fill="none" xmlns="http://www.w3.org/2000/svg">
<path d="M12.8655 3.78629H14.6819C14.9749 3.78629 15.1758 3.56029 15.1758 3.30079C15.1758 3.04131 14.9749 2.81531 14.6819 2.81531H12.8655C12.5726 2.81531 12.3716 3.04131 12.3716 3.30079C12.3716 3.56029 12.5726 3.78629 12.8655 3.78629ZM12.8655 6.13841H14.6819C14.9749 6.13841 15.1758 5.9124 15.1758 5.65291C15.1758 5.39343 14.9749 5.16743 14.6819 5.16743H12.8655C12.5726 5.16743 12.3716 5.39343 12.3716 5.65291C12.3716 5.9124 12.5726 6.13841 12.8655 6.13841ZM12.8655 8.49051H14.6819C14.9749 8.49051 15.1758 8.26451 15.1758 8.00501C15.1758 7.74555 14.9749 7.51117 14.6819 7.51117H12.8655C12.5726 7.51117 12.3716 7.74555 12.3716 8.00501C12.3716 8.26451 12.5726 8.49051 12.8655 8.49051ZM12.8655 10.8427H14.6819C14.9749 10.8427 15.1758 10.6167 15.1758 10.3572C15.1758 10.0893 14.9749 9.8633 14.6819 9.8633H12.8655C12.5726 9.8633 12.3716 10.0893 12.3716 10.3572C12.3716 10.6167 12.5726 10.8427 12.8655 10.8427Z" fill="black" fill-opacity="0.85"/>
<path d="M8.67187 19.3137C11.0826 19.3137 13.0329 17.3549 13.0329 14.9442C13.0329 13.6719 12.5139 12.5586 11.5095 11.6546C11.3337 11.4956 11.2918 11.3951 11.2918 11.144V3.57702C11.2918 1.8778 10.2288 0.714294 8.67187 0.714294C7.09821 0.714294 6.02678 1.8778 6.02678 3.57702V11.144C6.02678 11.3951 5.9933 11.4956 5.80915 11.6546C4.81306 12.5586 4.28571 13.6719 4.28571 14.9442C4.28571 17.3549 6.24442 19.3137 8.67187 19.3137ZM8.67187 18.0999C6.92243 18.0999 5.51618 16.6769 5.51618 14.9442C5.51618 13.8979 6.01004 12.952 6.89732 12.3577C7.15681 12.1819 7.25726 12.0229 7.25726 11.6797V3.62724C7.25726 2.62278 7.83482 1.94477 8.67187 1.94477C9.49218 1.94477 10.0698 2.62278 10.0698 3.62724V11.6797C10.0698 12.0229 10.1702 12.1819 10.4297 12.3577C11.317 12.952 11.8109 13.8979 11.8109 14.9442C11.8109 16.6769 10.3962 18.0999 8.67187 18.0999Z" fill="black" fill-opacity="0.85"/>
<path d="M8.66351 16.9699C9.78516 16.9699 10.6892 16.0659 10.6892 14.9359C10.6892 14.149 10.2455 13.5044 9.60101 13.1529C9.33315 13.0106 9.24107 12.9102 9.24107 12.5V8.0218C9.24107 7.61999 8.98159 7.3605 8.66351 7.3605C8.33706 7.3605 8.08594 7.61999 8.08594 8.0218V12.5C8.08594 12.9102 7.99387 13.0106 7.72601 13.1529C7.08147 13.5044 6.63784 14.149 6.63784 14.9359C6.63784 16.0659 7.54185 16.9699 8.66351 16.9699Z" fill="black" fill-opacity="0.85"/>
</svg>
