<svg width="28" height="28" viewBox="0 0 28 28" fill="none" xmlns="http://www.w3.org/2000/svg">
<path fill-rule="evenodd" clip-rule="evenodd" d="M14 28C21.732 28 28 21.732 28 14C28 6.26801 21.732 0 14 0C6.26801 0 0 6.26801 0 14C0 21.732 6.26801 28 14 28ZM14 26C20.6274 26 26 20.6274 26 14C26 7.37258 20.6274 2 14 2C7.37258 2 2 7.37258 2 14C2 20.6274 7.37258 26 14 26Z" fill="white"/>
<path d="M11 13.5C11 14.8807 9.88071 16 8.5 16C7.11929 16 6 14.8807 6 13.5C6 12.1193 7.11929 11 8.5 11C9.88071 11 11 12.1193 11 13.5Z" fill="white"/>
<path d="M22 13.5C22 14.8807 20.8807 16 19.5 16C18.1193 16 17 14.8807 17 13.5C17 12.1193 18.1193 11 19.5 11C20.8807 11 22 12.1193 22 13.5Z" fill="white"/>
</svg>
