<svg width="16" height="20" viewBox="0 0 16 20" fill="none" xmlns="http://www.w3.org/2000/svg">
<path d="M3.85144 10.786L3.21032 11.2338C2.17271 11.9584 1.5 13.1552 1.5 14.5078C1.5 16.7107 3.28886 18.5001 5.5 18.5001C7.7111 18.5001 9.5 16.7107 9.5 14.5078C9.5 13.1552 8.8273 11.9584 7.7897 11.2338L7.1486 10.786V10.004V3.14856C7.1486 2.23808 6.4105 1.5 5.5 1.5C4.58953 1.5 3.85144 2.23808 3.85144 3.14856V10.004V10.786ZM2.35144 3.14856C2.35144 1.40966 3.7611 0 5.5 0C7.2389 0 8.6486 1.40966 8.6486 3.14856V10.004C10.0702 10.9969 11 12.6439 11 14.5078C11 17.5411 8.5376 20.0001 5.5 20.0001C2.46243 20.0001 0 17.5411 0 14.5078C0 12.6439 0.92978 10.9969 2.35144 10.004V3.14856ZM12.75 5.25V7H14.25V5.25H16V3.75H14.25V2H12.75V3.75H11V5.25H12.75ZM11 10.4854H16V8.9854H11V10.4854Z" fill="white"/>
</svg>
