<svg width="18" height="25" viewBox="0 0 18 25" fill="none" xmlns="http://www.w3.org/2000/svg">
<path fill-rule="evenodd" clip-rule="evenodd" d="M9.00346 2.30458C14.5875 9.68737 15.9231 13.0478 15.9231 16.3764C15.9231 19.8996 12.9142 22.9167 9 22.9167C5.0858 22.9167 2.07692 19.8996 2.07692 16.3764C2.07692 12.4042 3.41683 9.66197 9.00346 2.30458ZM10.3947 0.698275C16.2179 8.34765 18 12.2471 18 16.3764C18 21.139 13.9706 25 9 25C4.02944 25 0 21.139 0 16.3764C0 11.5679 1.82177 8.29555 7.60971 0.702442C8.3214 -0.231128 9.68359 -0.235767 10.3947 0.698275ZM11.1986 17.3314C11.8068 16.6604 12.1154 15.8586 12.1154 15.2792H14.1923C14.1923 16.4854 13.6108 17.7669 12.7354 18.7328C11.8475 19.7126 10.5469 20.4875 9 20.4875V18.4042C9.82662 18.4042 10.6031 17.9885 11.1986 17.3314Z" fill="white"/>
</svg>
