<svg width="20" height="25" viewBox="0 0 20 25" fill="none" xmlns="http://www.w3.org/2000/svg">
<path fill-rule="evenodd" clip-rule="evenodd" d="M17.1429 6.94444V9.72222H18.5714C19.3604 9.72222 20 10.344 20 11.1111V18.0556C20 21.8908 16.802 25 12.8571 25H7.14286C3.19797 25 0 21.8908 0 18.0556V11.1111C0 10.344 0.6396 9.72222 1.42857 9.72222H2.85714V6.94444C2.85714 3.10914 6.05511 0 10 0C13.9449 0 17.1429 3.10914 17.1429 6.94444ZM5 9.72222H15V6.94444C15 4.25972 12.7614 2.08333 10 2.08333C7.23857 2.08333 5 4.25972 5 6.94444V9.72222ZM7.14286 22.9167C4.38143 22.9167 2.14286 20.7403 2.14286 18.0556V11.8056H17.8571V18.0556C17.8571 20.7403 15.6186 22.9167 12.8571 22.9167H7.14286ZM11.0714 17.7904C11.7191 17.4308 12.1557 16.7532 12.1557 15.9765C12.1557 14.8236 11.1934 13.8889 10.0064 13.8889C8.81943 13.8889 7.85714 14.8236 7.85714 15.9765C7.85714 16.7481 8.28786 17.4218 8.92857 17.7832V19.4444C8.92857 19.8279 9.24843 20.1389 9.64286 20.1389H10.3571C10.7516 20.1389 11.0714 19.8279 11.0714 19.4444V17.7904Z" fill="white"/>
</svg>
